<svg xmlns="http://www.w3.org/2000/svg" width="65" height="64" viewBox="0 0 65 64">
  <defs>
    <style>
      .cls-1 {
        fill: #ad7d57;
        fill-rule: evenodd;
      }
    </style>
  </defs>
  <path class="cls-1" d="M65.169,40.762a9.7,9.7,0,0,1-18.557,0H65.169ZM9.6,19.666V23.39l9.278,16.127-0.205.119H0.34l8.688-15.1V38.014H9.6V24.532l8.688,15.1-0.328-.572H0.669l-0.328.572H-0.043l-0.206-.119L9.029,23.39V19.679c-3.359-.036-6.021-2.164-6.019-6.2a2.4,2.4,0,1,1,4.76-.571l0.006,0.183a2.4,2.4,0,0,1-4.071,1.727c0.817,3.762,4.857,4.374,7.993,3.146L32.2,9.929V6.8L30.4,5.941l1.677-.932c0.607-5.651.452-5.613,1.055,0l1.677,0.932L33,6.8V9.929L53.505,17.96c3.136,1.228,7.176.616,7.994-3.146a2.4,2.4,0,0,1-4.071-1.727l0.007-.183a2.4,2.4,0,0,1,4.791.183,2.437,2.437,0,0,1-.031.388c0,4.04-2.66,6.168-6.02,6.2v3.71l9.278,16.127-0.206.119H46.918l8.688-15.1V38.014h0.569V24.532l8.689,15.1-0.329-.572H47.246l-0.328.572H46.533l-0.205-.119L55.605,23.39V19.666a9.737,9.737,0,0,1-2.586-.523L39.656,14.537H25.549L12.186,19.143A9.742,9.742,0,0,1,9.6,19.666ZM39.257,31.338V48.024L37.916,49.37V31.338h1.342Zm-4.231,0V52.269l-1.341,1.346V31.338h1.341Zm-3.715,0V56l-1.341,1.346V31.338h1.341Zm-3.921,0V60.39L26.05,62.014V31.338h1.342Zm0.723-6.109H37.09v1.346H28.114V25.229ZM26,27.87H39.206v1.346H26V27.87Zm18.1-4.823h-0.8A1.144,1.144,0,1,0,44.094,23.047Zm-22.983,0h0.8A1.143,1.143,0,1,1,21.111,23.047Zm0.09-3.488H44v0.018a4.547,4.547,0,1,1-4.452,2.676l3.642-.067a2,2,0,1,1-1.18.861H40.735A3.145,3.145,0,1,0,44,20.98v0H21.2v0a3.152,3.152,0,1,0,3.268,2.067H23.19a1.986,1.986,0,1,1-1.18-.861l3.642,0.067A4.539,4.539,0,1,1,21.2,19.577V19.559Zm-2.609,21.2a9.7,9.7,0,0,1-18.556,0H18.592Z"/>
</svg>
